mtllib Asset 1.mtl
# Vertex Positions: 
g groupNumber_0
v -3.47728 0 6.4952
v -4.5131 -1.03582 6.4952
v -5.6525 -2.17522 6.4952
v -5.8424 -2.36512 6.37842
v -6.0323 -2.55502 6.4952
v -7.1717 -3.69442 6.4952
v -7.3616 -3.88432 6.37842
v -7.5515 -4.07422 6.4952
v -8.6909 -5.21362 6.4952
v -8.8808 -5.40352 6.37842
v -9.0707 -5.59342 6.4952
v -10.2101 -6.73283 6.4952
v -10.4 -6.92273 6.37842
v -10.5899 -7.11263 6.4952
v -11.7293 -8.25203 6.4952
v -11.9192 -8.44193 6.37842
v -11.9192 8.44193 6.37842
v -11.7293 8.25203 6.4952
v -10.5899 7.11263 6.4952
v -10.4 6.92273 6.37842
v -10.2101 6.73283 6.4952
v -9.0707 5.59342 6.4952
v -8.8808 5.40352 6.37842
v -8.6909 5.21362 6.4952
v -7.5515 4.07422 6.4952
v -7.3616 3.88432 6.37842
v -7.1717 3.69442 6.4952
v -6.0323 2.55502 6.4952
v -5.8424 2.36512 6.37842
v -5.6525 2.17522 6.4952
v -4.5131 1.03582 6.4952
v 3.47728 0 6.4952
v 11.9192 -8.44193 6.37842
v 11.7293 -8.25203 6.4952
v 10.5899 -7.11263 6.4952
v 10.4 -6.92273 6.37842
v 10.2101 -6.73283 6.4952
v 9.0707 -5.59342 6.4952
v 8.8808 -5.40352 6.37842
v 8.6909 -5.21362 6.4952
v 7.5515 -4.07422 6.4952
v 7.3616 -3.88432 6.37842
v 7.1717 -3.69442 6.4952
v 6.0323 -2.55502 6.4952
v 5.8424 -2.36512 6.37842
v 5.6525 -2.17522 6.4952
v 4.5131 -1.03582 6.4952
v 4.5131 1.03582 6.4952
v 5.6525 2.17522 6.4952
v 5.8424 2.36512 6.37842
v 6.0323 2.55502 6.4952
v 7.1717 3.69442 6.4952
v 7.3616 3.88432 6.37842
v 7.5515 4.07422 6.4952
v 8.6909 5.21362 6.4952
v 8.8808 5.40352 6.37842
v 9.0707 5.59342 6.4952
v 10.2101 6.73283 6.4952
v 10.4 6.92273 6.37842
v 10.5899 7.11263 6.4952
v 11.7293 8.25203 6.4952
v 11.9192 8.44193 6.37842
v -3.1991 -6.36646e-12 -6.4952
v -4.15205 -0.952954 -6.4952
v -5.2003 -2.0012 -6.4952
v -5.37501 -2.17591 -6.37842
v -5.54971 -2.35062 -6.4952
v -6.59796 -3.39887 -6.4952
v -6.77267 -3.57358 -6.37842
v -6.94738 -3.74828 -6.4952
v -7.99563 -4.79653 -6.4952
v -8.17034 -4.97124 -6.37842
v -8.34505 -5.14595 -6.4952
v -9.39329 -6.1942 -6.4952
v -9.568 -6.36891 -6.37842
v -9.74271 -6.54362 -6.4952
v -10.791 -7.59186 -6.4952
v -10.9657 -7.76657 -6.37842
v -10.9657 7.76657 -6.37842
v -10.791 7.59186 -6.4952
v -9.74271 6.54362 -6.4952
v -9.568 6.36891 -6.37842
v -9.39329 6.1942 -6.4952
v -8.34505 5.14595 -6.4952
v -8.17034 4.97124 -6.37842
v -7.99563 4.79653 -6.4952
v -6.94738 3.74828 -6.4952
v -6.77267 3.57358 -6.37842
v -6.59796 3.39887 -6.4952
v -5.54971 2.35062 -6.4952
v -5.37501 2.17591 -6.37842
v -5.2003 2.0012 -6.4952
v -4.15205 0.952954 -6.4952
v 3.1991 -6.36646e-12 -6.4952
v 10.9657 -7.76657 -6.37842
v 10.791 -7.59186 -6.4952
v 9.74271 -6.54362 -6.4952
v 9.568 -6.36891 -6.37842
v 9.39329 -6.1942 -6.4952
v 8.34505 -5.14595 -6.4952
v 8.17034 -4.97124 -6.37842
v 7.99563 -4.79653 -6.4952
v 6.94738 -3.74828 -6.4952
v 6.77267 -3.57358 -6.37842
v 6.59796 -3.39887 -6.4952
v 5.54971 -2.35062 -6.4952
v 5.37501 -2.17591 -6.37842
v 5.2003 -2.0012 -6.4952
v 4.15205 -0.952954 -6.4952
v 4.15205 0.952954 -6.4952
v 5.2003 2.0012 -6.4952
v 5.37501 2.17591 -6.37842
v 5.54971 2.35062 -6.4952
v 6.59796 3.39887 -6.4952
v 6.77267 3.57358 -6.37842
v 6.94738 3.74828 -6.4952
v 7.99563 4.79653 -6.4952
v 8.17034 4.97124 -6.37842
v 8.34505 5.14595 -6.4952
v 9.39329 6.1942 -6.4952
v 9.568 6.36891 -6.37842
v 9.74271 6.54362 -6.4952
v 10.791 7.59186 -6.4952
v 10.9657 7.76657 -6.37842
v -11.1404 7.94128 -6.4952
v -11.1404 -7.94128 -6.4952
v 11.1404 -7.94128 -6.4952
v 11.1404 7.94128 -6.4952
v -12.1091 8.63183 6.4952
v -12.1091 -8.63183 6.4952
v 12.1091 -8.63183 6.4952
v 12.1091 8.63183 6.4952
v -11.6247 -3.18323e-12 0
v -1.14245e-08 -8.28655 0
v 11.6247 -3.18323e-12 0
v -1.14245e-08 8.28655 0


# Vertex Texture Coordinates :
vt 0 0.354257
vt 0 0
vt 0.177128 0.177128
vt 0.155873 0.155873
vt 0.132492 0.132492
vt 0.128595 0.128595
vt 0.124698 0.124698
vt 0.101317 0.101317
vt 0.0974206 0.0974206
vt 0.0935238 0.0935238
vt 0.0701428 0.0701428
vt 0.066246 0.066246
vt 0.0623492 0.0623492
vt 0.0389682 0.0389682
vt 0.0350714 0.0350714
vt 0.0311746 0.0311746
vt 0.00779365 0.00779365
vt 0.00389682 0.00389682
vt 0.496967 0
vt 0.00389682 0.35036
vt 0.00779365 0.346463
vt 0.0311746 0.323082
vt 0.0350714 0.319185
vt 0.0389682 0.315288
vt 0.0623492 0.291908
vt 0.066246 0.288011
vt 0.0701428 0.284114
vt 0.0935238 0.260733
vt 0.0974206 0.256836
vt 0.101317 0.252939
vt 0.124698 0.229558
vt 0.128595 0.225662
vt 0.132492 0.221765
vt 0.155873 0.198384
vt 0.496967 0.354257
vt 0.319838 0.177128
vt 0.49307 0.00389682
vt 0.489173 0.00779365
vt 0.465792 0.0311746
vt 0.461895 0.0350714
vt 0.457999 0.0389682
vt 0.434618 0.0623492
vt 0.430721 0.066246
vt 0.426824 0.0701428
vt 0.403443 0.0935238
vt 0.399546 0.0974206
vt 0.395649 0.101317
vt 0.372268 0.124698
vt 0.368372 0.128595
vt 0.364475 0.132492
vt 0.341094 0.155873
vt 0.341094 0.198384
vt 0.364475 0.221765
vt 0.368372 0.225662
vt 0.372268 0.229558
vt 0.395649 0.252939
vt 0.399546 0.256836
vt 0.403443 0.260733
vt 0.426824 0.284114
vt 0.430721 0.288011
vt 0.434618 0.291908
vt 0.457999 0.315288
vt 0.461895 0.319185
vt 0.465792 0.323082
vt 0.489173 0.346463
vt 0.49307 0.35036
vt 1 0.354257
vt 1 0
vt 0.822872 0.177128
vt 0.844127 0.155873
vt 0.867508 0.132492
vt 0.871405 0.128595
vt 0.875302 0.124698
vt 0.898683 0.101317
vt 0.902579 0.0974206
vt 0.906476 0.0935238
vt 0.929857 0.0701428
vt 0.933754 0.066246
vt 0.937651 0.0623492
vt 0.961032 0.0389682
vt 0.964929 0.0350714
vt 0.968825 0.0311746
vt 0.992206 0.00779365
vt 0.996103 0.00389682
vt 0.503033 0
vt 0.996103 0.35036
vt 0.992206 0.346463
vt 0.968825 0.323082
vt 0.964929 0.319185
vt 0.961032 0.315288
vt 0.937651 0.291908
vt 0.933754 0.288011
vt 0.929857 0.284114
vt 0.906476 0.260733
vt 0.902579 0.256836
vt 0.898683 0.252939
vt 0.875302 0.229558
vt 0.871405 0.225662
vt 0.867508 0.221765
vt 0.844127 0.198384
vt 0.503033 0.354257
vt 0.680162 0.177128
vt 0.50693 0.00389682
vt 0.510827 0.00779365
vt 0.534208 0.0311746
vt 0.538105 0.0350714
vt 0.542001 0.0389682
vt 0.565382 0.0623492
vt 0.569279 0.066246
vt 0.573176 0.0701428
vt 0.596557 0.0935238
vt 0.600454 0.0974206
vt 0.604351 0.101317
vt 0.627732 0.124698
vt 0.631628 0.128595
vt 0.635525 0.132492
vt 0.658906 0.155873
vt 0.658906 0.198384
vt 0.635525 0.221765
vt 0.631628 0.225662
vt 0.627732 0.229558
vt 0.604351 0.252939
vt 0.600454 0.256836
vt 0.596557 0.260733
vt 0.573176 0.284114
vt 0.569279 0.288011
vt 0.565382 0.291908
vt 0.542001 0.315288
vt 0.538105 0.319185
vt 0.534208 0.323082
vt 0.510827 0.346463
vt 0.50693 0.35036
vt 1.31297e-05 0.360371
vt 0.35427 0.360371
vt 0.360349 0.360371
vt 0.857316 0.360371
vt 1.31297e-05 0.633121
vt 0.35427 0.633121
vt 0.360349 0.633121
vt 0.857316 0.633121
vt 1.31297e-05 0.626984
vt 0.35427 0.626984
vt 0.360349 0.626984
vt 0.857316 0.626984
vt 1.31297e-05 0.899733
vt 0.35427 0.899733
vt 0.360349 0.899733
vt 0.857316 0.899733
vt 0.177141 0.493678
vt 0.608833 0.493678
vt 0.177141 0.766427
vt 0.608833 0.766427


# Vertex Surface Normals: 
vn 0.523837 0 0.851818
vn 0.523837 0 0.851818
vn 0.523837 0 0.851818
vn 0 0.523837 0.851818
vn 0 0.523837 0.851818
vn 0 0.523837 0.851818
vn 0 0 1
vn 0 0 1
vn 0 0 1
vn 0 0 1
vn 0 -0.523837 0.851818
vn 0 -0.523837 0.851818
vn 0 -0.523837 0.851818
vn -0.523837 0 0.851818
vn -0.523837 0 0.851818
vn -0.523837 0 0.851818
vn -0.523837 0 0.851818
vn -0.523837 0 0.851818
vn -0.523837 0 0.851818
vn 0 -0.523837 0.851818
vn 0 -0.523837 0.851818
vn 0 -0.523837 0.851818
vn 0.523837 0 0.851819
vn 0.523837 0 0.851819
vn 0.523837 0 0.851819
vn 0 0.523837 0.851819
vn 0 0.523837 0.851819
vn 0 0.523837 0.851819
vn 0 0 1
vn 0 0 1
vn 0 0 1
vn 0 0 1
vn 0 0.523837 0.851818
vn 0 0.523837 0.851818
vn 0 0.523837 0.851818
vn 0.523837 0 0.851818
vn 0.523837 0 0.851818
vn 0.523837 0 0.851818
vn 0 0 1
vn 0 0 1
vn 0 0 1
vn 0 0 1
vn -0.523837 0 0.851819
vn -0.523837 0 0.851819
vn -0.523837 0 0.851819
vn 0 -0.523837 0.851819
vn 0 -0.523837 0.851819
vn 0 -0.523837 0.851819
vn 0 0.523837 0.851819
vn 0 0.523837 0.851819
vn 0 0.523837 0.851819
vn 0.523837 0 0.851819
vn 0.523837 0 0.851819
vn 0.523837 0 0.851819
vn 0.523837 0 0.851819
vn 0.523837 0 0.851819
vn 0.523837 0 0.851819
vn 0 0.523837 0.851819
vn 0 0.523837 0.851819
vn 0 0.523837 0.851819
vn 0 0 1
vn 0 0 1
vn 0 0 1
vn 0 0 1
vn 0 -0.523837 0.851819
vn 0 -0.523837 0.851819
vn 0 -0.523837 0.851819
vn -0.523837 0 0.851819
vn -0.523837 0 0.851819
vn -0.523837 0 0.851819
vn 0 0 1
vn 0 0 1
vn 0 0 1
vn 0 0 1
vn 0 -0.523837 0.851818
vn 0 -0.523837 0.851818
vn 0 -0.523837 0.851818
vn -0.523837 0 0.851818
vn -0.523837 0 0.851818
vn -0.523837 0 0.851818
vn 0 0.523837 0.851818
vn 0 0.523837 0.851818
vn 0 0.523837 0.851818
vn -0.523837 0 0.851818
vn 0 -0.523837 0.851819
vn 0 -0.523837 0.851819
vn 0 -0.523837 0.851819
vn 0.523837 0 0.851819
vn 0 0 1
vn 0 0 1
vn 0 -0.523837 0.851818
vn 0 -0.523837 0.851818
vn 0 -0.523837 0.851818
vn 0.523837 0 0.851818
vn 0 0 1
vn 0 0 1
vn -0.523837 0 0.851818
vn 0 0.523837 0.851818
vn 0 0.523837 0.851818
vn 0 0.523837 0.851818
vn 0 -0.523837 0.851818
vn 0 -0.523837 0.851818
vn 0 -0.523837 0.851818
vn 0.523837 0 0.851818
vn 0 0.523837 0.851819
vn 0 0.523837 0.851819
vn 0 0.523837 0.851819
vn -0.523837 0 0.851819
vn 0 0 1
vn 0 0 1
vn 0 0 1
vn 0 0 1
vn 0 0 1
vn 0 0 1
vn 0 0.523837 0.851819
vn 0 0.523837 0.851819
vn 0 0.523837 0.851819
vn -0.523837 0 0.851819
vn 0 0 1
vn 0 0 1
vn 0.523837 0 0.851819
vn 0 -0.523837 0.851819
vn 0 -0.523837 0.851819
vn 0 -0.523837 0.851819
vn 0 -0.523837 0.851819
vn 0 -0.523837 0.851819
vn 0 -0.523837 0.851819
vn 0.523837 0 0.851819
vn -0.523837 0 0.851818
vn 0 0.523837 0.851818
vn 0 0.523837 0.851818
vn 0 0.523837 0.851818
vn 0 0 1
vn 0.523837 0 0.851819
vn 0.523837 0 0.851819
vn 0.523837 0 0.851819
vn 0 -0.523837 0.851819
vn 0 0 1
vn 0 0 1
vn 0 0.523837 0.851819
vn -0.523837 0 0.851819
vn -0.523837 0 0.851819
vn -0.523837 0 0.851819
vn 0 0 1
vn -0.523837 0 0.851819
vn -0.523837 0 0.851819
vn -0.523837 0 0.851819
vn 0 0.523837 0.851819
vn 0 -0.523837 0.851819
vn 0.523837 0 0.851819
vn 0.523837 0 0.851819
vn 0.523837 0 0.851819
vn 0 0 1
vn 0 0 1
vn 0 0 1
vn 0 0 1
vn -0.523837 0 0.851818
vn -0.523837 0 0.851818
vn -0.523837 0 0.851818
vn 0 0.523837 0.851818
vn 0 -0.523837 0.851818
vn 0.523837 0 0.851818
vn 0.523837 0 0.851818
vn 0.523837 0 0.851818
vn -0.523837 0 0.851819
vn -0.523837 0 0.851819
vn -0.523837 0 0.851819
vn 0 0.523837 0.851819
vn 0.523837 0 0.851818
vn 0.523837 0 0.851818
vn 0.523837 0 0.851818
vn 0 -0.523837 0.851818
vn 0 0 1
vn 0 0 1
vn -0.523837 0 0.851818
vn -0.523837 0 0.851818
vn -0.523837 0 0.851818
vn 0 0.523837 0.851818
vn 0 -0.523837 0.851818
vn 0.523837 0 0.851818
vn 0.523837 0 0.851818
vn 0.523837 0 0.851818
vn 0 0.523837 0.851819
vn 0.523837 0 0.851819
vn 0 -0.523837 0.851819
vn -0.523837 0 0.851819
vn 0.523837 0 0.851819
vn 0 0.523837 0.851819
vn -0.523837 0 0.851819
vn 0 -0.523837 0.851819
vn 0 0.523837 0.851818
vn 0.523837 0 0.851818
vn -0.523837 0 0.851819
vn 0 -0.523837 0.851819
vn 0 -0.523837 0.851818
vn -0.523837 0 0.851818
vn 0 0.523837 0.851818
vn 0.523837 0 0.851818
vn -0.523837 0 0.851818
vn 0 -0.523837 0.851818
vn 0.523837 0 0.851818
vn 0 0.523837 0.851818
vn 0.523837 0 -0.851818
vn 0.523837 0 -0.851818
vn 0.523837 0 -0.851818
vn 0 0.523837 -0.851818
vn 0 0.523837 -0.851818
vn 0 0.523837 -0.851818
vn 0 0 -1
vn 0 0 -1
vn 0 0 -1
vn 0 0 -1
vn 0 -0.523837 -0.851818
vn 0 -0.523837 -0.851818
vn 0 -0.523837 -0.851818
vn -0.523837 0 -0.851818
vn -0.523837 0 -0.851818
vn -0.523837 0 -0.851818
vn -0.523837 0 -0.851818
vn -0.523837 0 -0.851818
vn -0.523837 0 -0.851818
vn 0 -0.523837 -0.851818
vn 0 -0.523837 -0.851818
vn 0 -0.523837 -0.851818
vn 0.523837 0 -0.851819
vn 0.523837 0 -0.851819
vn 0.523837 0 -0.851819
vn 0 0.523837 -0.851819
vn 0 0.523837 -0.851819
vn 0 0.523837 -0.851819
vn 0 0 -1
vn 0 0 -1
vn 0 0 -1
vn 0 0 -1
vn 0 0.523837 -0.851818
vn 0 0.523837 -0.851818
vn 0 0.523837 -0.851818
vn 0.523837 0 -0.851818
vn 0.523837 0 -0.851818
vn 0.523837 0 -0.851818
vn 0 0 -1
vn 0 0 -1
vn 0 0 -1
vn 0 0 -1
vn -0.523837 0 -0.851819
vn -0.523837 0 -0.851819
vn -0.523837 0 -0.851819
vn 0 -0.523837 -0.851819
vn 0 -0.523837 -0.851819
vn 0 -0.523837 -0.851819
vn 0 0.523837 -0.851819
vn 0 0.523837 -0.851819
vn 0 0.523837 -0.851819
vn 0.523837 0 -0.851819
vn 0.523837 0 -0.851819
vn 0.523837 0 -0.851819
vn 0.523837 0 -0.851819
vn 0.523837 0 -0.851819
vn 0.523837 0 -0.851819
vn 0 0.523837 -0.851819
vn 0 0.523837 -0.851819
vn 0 0.523837 -0.851819
vn 0 0 -1
vn 0 0 -1
vn 0 0 -1
vn 0 0 -1
vn 0 -0.523837 -0.851819
vn 0 -0.523837 -0.851819
vn 0 -0.523837 -0.851819
vn -0.523837 0 -0.851819
vn -0.523837 0 -0.851819
vn -0.523837 0 -0.851819
vn 0 0 -1
vn 0 0 -1
vn 0 0 -1
vn 0 0 -1
vn 0 -0.523837 -0.851818
vn 0 -0.523837 -0.851818
vn 0 -0.523837 -0.851818
vn -0.523837 0 -0.851818
vn -0.523837 0 -0.851818
vn -0.523837 0 -0.851818
vn 0 0.523837 -0.851818
vn 0 0.523837 -0.851818
vn 0 0.523837 -0.851818
vn -0.523837 0 -0.851818
vn 0 -0.523837 -0.851819
vn 0 -0.523837 -0.851819
vn 0 -0.523837 -0.851819
vn 0.523837 0 -0.851819
vn 0 0 -1
vn 0 0 -1
vn 0 -0.523837 -0.851818
vn 0 -0.523837 -0.851818
vn 0 -0.523837 -0.851818
vn 0.523837 0 -0.851818
vn 0 0 -1
vn 0 0 -1
vn -0.523837 0 -0.851818
vn 0 0.523837 -0.851818
vn 0 0.523837 -0.851818
vn 0 0.523837 -0.851818
vn 0 -0.523837 -0.851818
vn 0 -0.523837 -0.851818
vn 0 -0.523837 -0.851818
vn 0.523837 0 -0.851818
vn 0 0.523837 -0.851819
vn 0 0.523837 -0.851819
vn 0 0.523837 -0.851819
vn -0.523837 0 -0.851819
vn 0 0 -1
vn 0 0 -1
vn 0 0 -1
vn 0 0 -1
vn 0 0 -1
vn 0 0 -1
vn 0 0.523837 -0.851819
vn 0 0.523837 -0.851819
vn 0 0.523837 -0.851819
vn -0.523837 0 -0.851819
vn 0 0 -1
vn 0 0 -1
vn 0.523837 0 -0.851819
vn 0 -0.523837 -0.851819
vn 0 -0.523837 -0.851819
vn 0 -0.523837 -0.851819
vn 0 -0.523837 -0.851819
vn 0 -0.523837 -0.851819
vn 0 -0.523837 -0.851819
vn 0.523837 0 -0.851819
vn -0.523837 0 -0.851818
vn 0 0.523837 -0.851818
vn 0 0.523837 -0.851818
vn 0 0.523837 -0.851818
vn 0 0 -1
vn 0.523837 0 -0.851819
vn 0.523837 0 -0.851819
vn 0.523837 0 -0.851819
vn 0 -0.523837 -0.851819
vn 0 0 -1
vn 0 0 -1
vn 0 0.523837 -0.851819
vn -0.523837 0 -0.851819
vn -0.523837 0 -0.851819
vn -0.523837 0 -0.851819
vn 0 0 -1
vn -0.523837 0 -0.851819
vn -0.523837 0 -0.851819
vn -0.523837 0 -0.851819
vn 0 0.523837 -0.851819
vn 0 -0.523837 -0.851819
vn 0.523837 0 -0.851819
vn 0.523837 0 -0.851819
vn 0.523837 0 -0.851819
vn 0 0 -1
vn 0 0 -1
vn 0 0 -1
vn 0 0 -1
vn -0.523837 0 -0.851818
vn -0.523837 0 -0.851818
vn -0.523837 0 -0.851818
vn 0 0.523837 -0.851818
vn 0 -0.523837 -0.851818
vn 0.523837 0 -0.851818
vn 0.523837 0 -0.851818
vn 0.523837 0 -0.851818
vn -0.523837 0 -0.851819
vn -0.523837 0 -0.851819
vn -0.523837 0 -0.851819
vn 0 0.523837 -0.851819
vn 0.523837 0 -0.851818
vn 0.523837 0 -0.851818
vn 0.523837 0 -0.851818
vn 0 -0.523837 -0.851818
vn 0 0 -1
vn 0 0 -1
vn -0.523837 0 -0.851818
vn -0.523837 0 -0.851818
vn -0.523837 0 -0.851818
vn 0 0.523837 -0.851818
vn 0 -0.523837 -0.851818
vn 0.523837 0 -0.851818
vn 0.523837 0 -0.851818
vn 0.523837 0 -0.851818
vn 0 0.523837 -0.851819
vn 0.523837 0 -0.851819
vn 0 -0.523837 -0.851819
vn -0.523837 0 -0.851819
vn 0.523837 0 -0.851819
vn 0 0.523837 -0.851819
vn -0.523837 0 -0.851819
vn 0 -0.523837 -0.851819
vn 0 0.523837 -0.851818
vn 0.523837 0 -0.851818
vn -0.523837 0 -0.851819
vn 0 -0.523837 -0.851819
vn 0 -0.523837 -0.851818
vn -0.523837 0 -0.851818
vn 0 0.523837 -0.851818
vn 0.523837 0 -0.851818
vn -0.523837 0 -0.851818
vn 0 -0.523837 -0.851818
vn 0.523837 0 -0.851818
vn 0 0.523837 -0.851818
vn -0.997231 0 -0.0743661
vn -0.997231 0 -0.0743661
vn -0.997231 0 -0.0743661
vn -0.997231 0 -0.0743661
vn -0.997231 0 -0.0743661
vn 1.29603e-27 -0.99859 -0.0530832
vn -5.19209e-17 -0.99859 -0.0530832
vn 5.19209e-17 -0.99859 -0.0530832
vn 5.12967e-17 -0.99859 -0.0530832
vn -5.12967e-17 -0.99859 -0.0530832
vn 0.997231 0 -0.0743661
vn 0.997231 0 -0.0743661
vn 0.997231 0 -0.0743661
vn 0.997231 0 -0.0743661
vn 0.997231 0 -0.0743661
vn -6.48015e-28 0.99859 -0.0530832
vn -2.59604e-17 0.99859 -0.0530832
vn 2.59604e-17 0.99859 -0.0530832
vn 2.56483e-17 0.99859 -0.0530832
vn -2.56483e-17 0.99859 -0.0530832


# Faces: 
usemtl material0
f 130/2/1 16/18/2 17/20/3
f 16/18/4 130/2/5 131/19/6
f 15/17/7 14/16/8 19/22/9
f 14/16/8 15/17/7 34/38/10
f 16/18/11 33/37/12 15/17/13
f 16/18/14 15/17/15 18/21/16
f 13/15/17 12/14/18 21/24/19
f 12/14/20 13/15/21 36/40/22
f 11/13/23 10/12/24 23/26/25
f 10/12/26 11/13/27 38/42/28
f 12/14/29 37/41/30 11/13/31
f 12/14/29 11/13/31 22/25/32
f 14/16/33 35/39/34 13/15/35
f 14/16/36 13/15/37 20/23/38
f 9/11/39 8/10/40 25/28/41
f 8/10/40 9/11/39 40/44/42
f 7/9/43 6/8/44 27/30/45
f 6/8/46 7/9/47 42/46/48
f 8/10/49 41/45/50 7/9/51
f 8/10/52 7/9/53 26/29/54
f 5/7/55 4/6/56 29/32/57
f 4/6/58 5/7/59 44/48/60
f 3/5/61 2/4/62 31/34/63
f 2/4/62 3/5/61 46/50/64
f 4/6/65 45/49/66 3/5/67
f 4/6/68 3/5/69 30/33/70
f 6/8/71 43/47/72 5/7/73
f 6/8/71 5/7/73 28/31/74
f 10/12/75 39/43/76 9/11/77
f 10/12/78 9/11/79 24/27/80
f 20/23/81 21/24/82 58/62/83
f 21/24/19 20/23/84 13/15/17
f 22/25/85 23/26/86 56/60/87
f 23/26/25 22/25/88 11/13/23
f 21/24/89 12/14/29 22/25/32
f 21/24/89 22/25/32 57/61/90
f 129/1/91 17/20/92 62/66/93
f 17/20/3 129/1/94 130/2/1
f 18/21/95 19/22/9 60/64/96
f 19/22/9 18/21/95 15/17/7
f 17/20/97 16/18/14 18/21/16
f 17/20/98 18/21/99 61/65/100
f 20/23/101 59/63/102 19/22/103
f 20/23/38 19/22/104 14/16/36
f 29/32/105 30/33/106 49/53/107
f 30/33/70 29/32/108 4/6/68
f 31/34/63 1/3/109 32/36/110
f 1/3/109 31/34/63 2/4/62
f 30/33/111 3/5/61 31/34/63
f 30/33/111 31/34/63 48/52/112
f 24/27/113 25/28/41 54/58/114
f 25/28/41 24/27/113 9/11/39
f 26/29/115 27/30/116 52/56/117
f 27/30/45 26/29/118 7/9/43
f 28/31/74 27/30/119 6/8/71
f 27/30/119 28/31/74 51/55/120
f 25/28/121 8/10/52 26/29/54
f 25/28/122 26/29/123 53/57/124
f 29/32/125 50/54/126 28/31/127
f 29/32/57 28/31/128 5/7/55
f 23/26/129 10/12/78 24/27/80
f 23/26/130 24/27/131 55/59/132
f 2/4/62 47/51/133 1/3/109
f 43/47/134 42/46/135 53/57/136
f 42/46/48 43/47/137 6/8/46
f 41/45/138 40/44/42 55/59/139
f 40/44/42 41/45/138 8/10/40
f 42/46/140 7/9/51 41/45/50
f 42/46/141 41/45/142 54/58/143
f 47/51/133 46/50/64 49/53/144
f 46/50/64 47/51/133 2/4/62
f 45/49/145 44/48/146 51/55/147
f 44/48/60 45/49/148 4/6/58
f 46/50/149 3/5/67 45/49/66
f 46/50/150 45/49/151 50/54/152
f 43/47/72 52/56/153 44/48/154
f 43/47/72 44/48/154 5/7/73
f 35/39/155 34/38/10 61/65/156
f 34/38/10 35/39/155 14/16/8
f 33/37/157 131/19/158 132/35/159
f 131/19/6 33/37/160 16/18/4
f 34/38/161 15/17/13 33/37/12
f 34/38/162 33/37/163 62/66/164
f 39/43/165 38/42/166 57/61/167
f 38/42/28 39/43/168 10/12/26
f 37/41/169 36/40/170 59/63/171
f 36/40/22 37/41/172 12/14/20
f 38/42/173 11/13/31 37/41/30
f 38/42/173 37/41/30 58/62/174
f 35/39/175 60/64/176 36/40/177
f 35/39/34 36/40/178 13/15/35
f 40/44/179 9/11/77 39/43/76
f 40/44/180 39/43/181 56/60/182
f 32/36/110 48/52/112 31/34/63
f 48/52/112 32/36/110 47/51/133
f 49/53/107 50/54/183 29/32/105
f 50/54/152 49/53/184 46/50/150
f 48/52/112 47/51/133 49/53/144
f 48/52/112 49/53/144 30/33/111
f 51/55/120 52/56/153 27/30/119
f 52/56/153 51/55/120 44/48/154
f 53/57/124 54/58/185 25/28/122
f 54/58/143 53/57/186 42/46/141
f 52/56/187 43/47/134 53/57/136
f 52/56/117 53/57/188 26/29/115
f 50/54/189 45/49/145 51/55/147
f 50/54/126 51/55/190 28/31/127
f 55/59/132 56/60/191 23/26/130
f 56/60/182 55/59/192 40/44/180
f 57/61/90 58/62/174 21/24/89
f 58/62/174 57/61/90 38/42/173
f 56/60/193 39/43/165 57/61/167
f 56/60/87 57/61/194 22/25/85
f 59/63/102 60/64/195 19/22/103
f 60/64/176 59/63/196 36/40/177
f 61/65/100 62/66/197 17/20/98
f 62/66/164 61/65/198 34/38/162
f 132/35/159 62/66/199 33/37/157
f 62/66/93 132/35/200 129/1/91
f 60/64/96 35/39/155 61/65/156
f 60/64/96 61/65/156 18/21/95
f 58/62/201 37/41/169 59/63/171
f 58/62/83 59/63/202 20/23/81
f 54/58/114 41/45/138 55/59/139
f 54/58/114 55/59/139 24/27/113
f 47/51/133 32/36/110 1/3/109
f 78/84/203 126/68/204 79/86/205
f 126/68/206 78/84/207 127/85/208
f 76/82/209 77/83/210 81/88/211
f 77/83/210 76/82/209 96/104/212
f 95/103/213 78/84/214 77/83/215
f 77/83/216 78/84/217 80/87/218
f 74/80/219 75/81/220 83/90/221
f 75/81/222 74/80/223 98/106/224
f 72/78/225 73/79/226 85/92/227
f 73/79/228 72/78/229 100/108/230
f 99/107/231 74/80/232 73/79/233
f 73/79/233 74/80/232 84/91/234
f 97/105/235 76/82/236 75/81/237
f 75/81/238 76/82/239 82/89/240
f 70/76/241 71/77/242 87/94/243
f 71/77/242 70/76/241 102/110/244
f 68/74/245 69/75/246 89/96/247
f 69/75/248 68/74/249 104/112/250
f 103/111/251 70/76/252 69/75/253
f 69/75/254 70/76/255 88/95/256
f 66/72/257 67/73/258 91/98/259
f 67/73/260 66/72/261 106/114/262
f 64/70/263 65/71/264 93/100/265
f 65/71/264 64/70/263 108/116/266
f 107/115/267 66/72/268 65/71/269
f 65/71/270 66/72/271 92/99/272
f 105/113/273 68/74/274 67/73/275
f 67/73/275 68/74/274 90/97/276
f 101/109/277 72/78/278 71/77/279
f 71/77/280 72/78/281 86/93/282
f 83/90/283 82/89/284 120/128/285
f 82/89/286 83/90/221 75/81/220
f 85/92/287 84/91/288 118/126/289
f 84/91/290 85/92/227 73/79/226
f 74/80/232 83/90/291 84/91/234
f 84/91/234 83/90/291 119/127/292
f 79/86/293 125/67/294 124/132/295
f 125/67/296 79/86/205 126/68/204
f 81/88/211 80/87/297 122/130/298
f 80/87/297 81/88/211 77/83/210
f 78/84/217 79/86/299 80/87/218
f 80/87/300 79/86/301 123/131/302
f 121/129/303 82/89/304 81/88/305
f 81/88/306 82/89/240 76/82/239
f 92/99/307 91/98/308 111/119/309
f 91/98/310 92/99/272 66/72/271
f 63/69/311 93/100/265 94/102/312
f 93/100/265 63/69/311 64/70/263
f 65/71/264 92/99/313 93/100/265
f 93/100/265 92/99/313 110/118/314
f 87/94/243 86/93/315 116/124/316
f 86/93/315 87/94/243 71/77/242
f 89/96/317 88/95/318 114/122/319
f 88/95/320 89/96/247 69/75/246
f 89/96/321 90/97/276 68/74/274
f 90/97/276 89/96/321 113/121/322
f 70/76/255 87/94/323 88/95/256
f 88/95/324 87/94/325 115/123/326
f 112/120/327 91/98/328 90/97/329
f 90/97/330 91/98/259 67/73/258
f 72/78/281 85/92/331 86/93/282
f 86/93/332 85/92/333 117/125/334
f 109/117/335 64/70/263 63/69/311
f 104/112/336 105/113/337 115/123/338
f 105/113/339 104/112/250 68/74/249
f 102/110/244 103/111/340 117/125/341
f 103/111/340 102/110/244 70/76/241
f 69/75/253 104/112/342 103/111/251
f 103/111/343 104/112/344 116/124/345
f 108/116/266 109/117/335 111/119/346
f 109/117/335 108/116/266 64/70/263
f 106/114/347 107/115/348 113/121/349
f 107/115/350 106/114/262 66/72/261
f 65/71/269 108/116/351 107/115/267
f 107/115/352 108/116/353 112/120/354
f 114/122/355 105/113/273 106/114/356
f 106/114/356 105/113/273 67/73/275
f 96/104/212 97/105/357 123/131/358
f 97/105/357 96/104/212 76/82/209
f 127/85/359 95/103/360 128/101/361
f 95/103/362 127/85/208 78/84/207
f 77/83/215 96/104/363 95/103/213
f 95/103/364 96/104/365 124/132/366
f 100/108/367 101/109/368 119/127/369
f 101/109/370 100/108/230 72/78/229
f 98/106/371 99/107/372 121/129/373
f 99/107/374 98/106/224 74/80/223
f 73/79/233 100/108/375 99/107/231
f 99/107/231 100/108/375 120/128/376
f 122/130/377 97/105/378 98/106/379
f 98/106/380 97/105/235 75/81/237
f 71/77/279 102/110/381 101/109/277
f 101/109/382 102/110/383 118/126/384
f 110/118/314 94/102/312 93/100/265
f 94/102/312 110/118/314 109/117/335
f 112/120/385 111/119/309 91/98/308
f 111/119/386 112/120/354 108/116/353
f 109/117/335 110/118/314 111/119/346
f 111/119/346 110/118/314 92/99/313
f 114/122/355 113/121/322 89/96/321
f 113/121/322 114/122/355 106/114/356
f 116/124/387 115/123/326 87/94/325
f 115/123/388 116/124/345 104/112/344
f 105/113/337 114/122/389 115/123/338
f 115/123/390 114/122/319 88/95/318
f 107/115/348 112/120/391 113/121/349
f 113/121/392 112/120/327 90/97/329
f 118/126/393 117/125/334 85/92/333
f 117/125/394 118/126/384 102/110/383
f 120/128/376 119/127/292 83/90/291
f 119/127/292 120/128/376 100/108/375
f 101/109/368 118/126/395 119/127/369
f 119/127/396 118/126/289 84/91/288
f 122/130/397 121/129/303 81/88/305
f 121/129/398 122/130/377 98/106/379
f 124/132/399 123/131/302 79/86/301
f 123/131/400 124/132/366 96/104/365
f 124/132/401 128/101/361 95/103/360
f 128/101/402 124/132/295 125/67/294
f 97/105/357 122/130/298 123/131/358
f 123/131/358 122/130/298 80/87/297
f 99/107/372 120/128/403 121/129/373
f 121/129/404 120/128/285 82/89/284
f 103/111/340 116/124/316 117/125/341
f 117/125/341 116/124/316 86/93/315
f 94/102/312 109/117/335 63/69/311
f 133/149/405 125/133/406 126/134/407
f 133/149/405 126/134/407 130/142/408
f 133/149/405 130/142/408 129/141/409
f 133/149/405 129/141/409 125/133/406
f 134/150/410 126/135/411 127/136/412
f 134/150/410 127/136/412 131/144/413
f 134/150/410 131/144/413 130/143/414
f 134/150/410 130/143/414 126/135/411
f 135/151/415 127/137/416 128/138/417
f 135/151/415 128/138/417 132/146/418
f 135/151/415 132/146/418 131/145/419
f 135/151/415 131/145/419 127/137/416
f 136/152/420 128/139/421 125/140/422
f 136/152/420 125/140/422 129/148/423
f 136/152/420 129/148/423 132/147/424
f 136/152/420 132/147/424 128/139/421
